<?xml version="1.0" encoding="utf-8"?>
<!-- Generator: Adobe Illustrator 21.1.0, SVG Export Plug-In . SVG Version: 6.00 Build 0)  -->
<svg version="1.1" id="Layer_1" xmlns="http://www.w3.org/2000/svg" xmlns:xlink="http://www.w3.org/1999/xlink" x="0px" y="0px"
	 viewBox="0 0 1920 226" style="enable-background:new 0 0 1920 226;" xml:space="preserve">
<style type="text/css">
	.st0{fill:#AF1E1E;}
	.st1{fill:#FFE8E0;}
</style>
<path class="st0" d="M1920,0h-180.5c0,0,167.1,3.4,180.5,16.8V0z"/>
<g>
	<path class="st1" d="M1926.3,18.5c-1.5-0.9-3.8-2-6.3-3.1V0c0,0-69-2.6-162.7,1.1l4.8-0.5c-2.7,0-5.6-0.1-8.5-0.2l-9.1-0.1
		c-6.3-0.1-12.9-0.3-19.8-0.4l-21.3-0.1h-5.5l-5.5,0.1l-11,0.3l-11.1,0.4c-3.7,0.2-7.3,0.4-11,0.7c-7.3,0.5-14.4,1.1-21.3,1.8
		c-6.9,0.8-13.6,1.8-19.9,2.9c-3.2,0.5-6.2,1.1-9.2,1.7c-2.9,0.6-5.8,1.3-8.5,2.1c-4.5-0.2-9.1-0.1-13.6,0.4
		c-4.8,0.4-9.7,1.1-14.3,1.8c-9.2,1.3-17.2,2.4-20.8,0.8l-5.8,0.6l-5.6,0.7c-3.7,0.5-7.2,1-10.6,1.5c-6.8,1-13.2,2-19.2,3.1
		c-12.1,2.3-23,4.7-33.7,7.2c-10.8,2.5-21.4,5.2-33.2,7.8c-11.7,2.6-24.5,5.4-39.5,8.2c-8.8,0.9-4.9-1.8-7.7-3.2l11.8-2.7l11.8-2.6
		l23.6-5.1l-29.4,3.6c6.2-2,17-4,26.6-6.1s18.1-4,19.6-6c-5.2,1.4-10.7,2.7-16.5,4c-5.9,1.3-12,2.7-18.3,4s-12.8,2.6-19.4,3.9
		l-19.8,3.9c-13.2,2.6-26.2,5.3-38.1,8c-6,1.4-11.6,2.8-16.9,4.2s-10.2,2.9-14.6,4.5c17.2-2.5,38.3-7.6,58.6-11.1
		c9.1-0.4,23.1-2,22.5,0.1c-56.8,16.1-105.1,23-163.9,36.8c-14.7,3.5-34.9,7.3-37.8,6c9.6-2.7,1.9-2.7,9.7-5.2
		c-20.6,5.9-0.7,7.2-31.2,12.7l2.5-7.3c-10.6,9.4-37.3,6.6-58.1,15.1c-8.3-1,5.7-5.5,22.3-9.1c-19.1,2.8-20,7-35.1,10l13.1-8.5
		c-14.9,8.6-28.9,5-38.4,5.2c-0.8,1.6,8.5,4-11.6,7.9c-8.8,1.1-4.6-1.2-6.8-1.6c-0.8,1.6-7.5,5.6-20.8,8.5c-2.8-1.3,8.2-4.6,8.7-6.7
		c-10,2.2-18.1,4.3-25.6,4.3c-17.4,5.3,1.7,2.4-8.6,6.7c-27.4,4.4-4-5.8-14.9-7.6c19.9-6.9,46.1-13.3,56.8-17.1l-38.9,9.8
		c1.9-2.7-27.3,1.9-7-4.6c-39.5,6.2-86.3,18.5-123.5,28c5.5-0.3,12.4-1.3,11.5,0.3c-19.2,5.3-17.5,2.1-21.8,1.4
		c-14.1,4.4-11.7,7.9-20,12.4c-30.3,2.9-34.1,5.6-60.3,6.2l2.3,3.4c-3.8,0.1-7.5,0.5-11.2,1.3c-2.8,0.6-5.5,1.4-8.2,2.3
		c-6.5,2.4-13.4,3.9-20.3,4.3c-1.2-0.6,6-2.9,11.7-4.9c-16.8,4.4-16.3-0.3-32.6,4.2l12.4-6.6c-3.3,0.6-7,1.4-10.5,2.2l-5.2,1.1
		c-1.7,0.3-3.2,0.5-4.6,0.7c-5.7,0.7-8.9,0.6-5.8-1.7c-6.5,2.1-13.1,3.9-19.8,5.3c-3.7,0.8-7.6,1.6-11.6,2.3
		c-4,0.8-8.1,1.6-12.3,2.1c-8.3,1.2-16.9,2.3-25.1,3.6c-4.1,0.6-8.2,1.2-12.1,1.9l-5.8,1l-5.6,0.9l1.6-3.4
		c-7.3,2.6-21.2,3.7-34.8,4.8c-6.8,0.7-13.5,1-19.4,1.6c-5.8,0.6-10.8,1.5-14,2.9L565,173l-15,2.9l-15,2.4
		c-13.7-0.2-9.1-5.3-10.2-3.9l-10.9,0.4l-5.2,0.2H504c-6.7,0-13-0.1-19-0.3s-11.7-0.3-17-0.7s-10.4-1.1-15.2-1.8
		c-2.5,2.1-11.7,3-23.3,3.2c-5.8-0.1-12.3-0.4-18.8-0.7l-9.9-0.6c-3.3-0.2-6.5-0.4-9.6-0.8l-22.5-3.4l-5.7-0.8
		c-1.9-0.3-3.8-0.5-5.7-0.9l-11.3-2l-11.3-2c-3.8-0.7-7.6-1.2-11.4-2.1l-22.7-4.6c-30.2-6.6-60.3-14.3-89.6-23.5
		c-29-9.2-57.5-20-85.3-32.5c-3.5-1.4-6.8-3.1-10.1-4.7L105.5,92c-3.3-1.6-6.6-3.4-9.9-5s-6.6-3.3-9.8-5.1l-9.6-5.2l-4.8-2.6
		l-4.7-2.8l-9.3-5.4l-9-5.7c-7-4.8-15.8-9.8-25.1-15.3l-7-4.3c-2.3-1.5-4.6-3-7-4.5c-2.3-1.5-4.6-3.2-6.8-4.8l-3.3-2.6l-1.6-1.3
		L-3,26.5l-0.8-0.8c1.4,1.6,2.7,2.9,3.8,4.2V226h1920V19l4.9,1.3C1929.7,21.1,1929.2,20.2,1926.3,18.5z"/>
	<path class="st1" d="M766.3,149.7c4.8-0.2,10.5-0.8,9.9,0.3C781.2,148,782.2,147.1,766.3,149.7z"/>
	<path class="st1" d="M772.8,151.1c1-0.3,1.9-0.5,3.1-0.8c0.3-0.2,0.1-0.2,0.2-0.3C775.2,150.3,774.1,150.7,772.8,151.1z"/>
	<path class="st1" d="M1473.4,13.3l-5.3-2.4l-27.3,6.8C1452.5,18.4,1457.9,15.2,1473.4,13.3z"/>
	<path class="st1" d="M1469.1,24.1c4.7-1.3,9.5-2.6,14.2-3.9c-7.8,1.3-15.6,2.7-23.3,4.1L1469.1,24.1z"/>
	<polygon class="st1" points="1175.7,73.1 1120.4,87 1124,86.7 	"/>
	<path class="st1" d="M787.8,140.1l-23.8,6.1l3.6-0.1C773.2,143.3,781.9,142.5,787.8,140.1z"/>
	<path class="st1" d="M531,157.9c0.2-0.1,0.3-0.2,0.5-0.3C531.3,157.7,531.1,157.8,531,157.9z"/>
	<path class="st1" d="M531,157.9c-9,5.5-17.6,0-5.6,5.1C539.3,161.8,528.5,159.8,531,157.9z"/>
	<path class="st1" d="M494.5,164.6c-11-2.8-11.5,0.2-17.7,1.2C482.7,166.1,488.6,165.7,494.5,164.6z"/>
</g>
</svg>
