<svg id="Layer_1" data-name="Layer 1" xmlns="http://www.w3.org/2000/svg" viewBox="0 0 512 512"><defs><style>.cls-1{fill:#280000;}</style></defs><title>instagram-sketched</title><path class="cls-1" d="M452,0H60A60.07,60.07,0,0,0,0,60V452a60.07,60.07,0,0,0,60,60H452a60.07,60.07,0,0,0,60-60V60A60.07,60.07,0,0,0,452,0Zm20,452a20,20,0,0,1-20,20H338V309h61.79L410,247H338V204a29.49,29.49,0,0,1,30-30h41V112H368a92,92,0,0,0-92,92.17V247H216v62h60V472H60a20,20,0,0,1-20-20V60A20,20,0,0,1,60,40H452a20,20,0,0,1,20,20Z"/></svg>