<svg id="Layer_1" data-name="Layer 1" xmlns="http://www.w3.org/2000/svg" viewBox="0 0 511 511"><defs><style>.cls-1{fill:#280000;}</style></defs><title>instagram-sketched</title><path class="cls-1" d="M510.5,150.24c-1.2-27.15-5.59-45.82-11.88-62a130.9,130.9,0,0,0-74.77-74.77C407.58,7.19,389,2.8,361.86,1.6,334.51.3,325.83,0,256.45,0S178.39.3,151.13,1.5s-45.82,5.59-62,11.88A124.68,124.68,0,0,0,43.82,42.92,125.81,125.81,0,0,0,14.37,88.15C8.08,104.42,3.69,123,2.5,150.13,1.2,177.49.9,186.17.9,255.55s.3,78.06,1.5,105.31,5.59,45.82,11.88,62A130.88,130.88,0,0,0,89,497.62c16.27,6.29,34.84,10.68,62,11.88S187,511,256.35,511s78.06-.3,105.31-1.5,45.82-5.59,62-11.88a130.7,130.7,0,0,0,74.77-74.77c6.29-16.27,10.68-34.84,11.88-62s1.5-35.94,1.5-105.31S511.7,177.49,510.5,150.24Zm-46,208.63c-1.1,25-5.29,38.43-8.79,47.42a84.77,84.77,0,0,1-48.52,48.52c-9,3.49-22.56,7.69-47.42,8.78-27,1.2-35,1.5-103.22,1.5s-76.37-.3-103.22-1.5c-25-1.1-38.43-5.29-47.42-8.78a78.63,78.63,0,0,1-29.35-19.07A79.44,79.44,0,0,1,57.5,406.39c-3.49-9-7.69-22.56-8.78-47.42-1.2-27-1.5-35-1.5-103.22s.3-76.37,1.5-103.22c1.1-25,5.29-38.43,8.78-47.42A77.67,77.67,0,0,1,76.67,75.76,79.32,79.32,0,0,1,106,56.7c9-3.49,22.56-7.69,47.42-8.79,27-1.2,35-1.5,103.22-1.5s76.37.3,103.22,1.5c25,1.1,38.43,5.29,47.42,8.79a78.57,78.57,0,0,1,29.35,19.06,79.43,79.43,0,0,1,19.07,29.35c3.49,9,7.69,22.56,8.79,47.42,1.2,27,1.5,35,1.5,103.22S465.68,331.92,464.48,358.87Z"/><path class="cls-1" d="M256.45,124.28A131.27,131.27,0,1,0,387.72,255.55,131.3,131.3,0,0,0,256.45,124.28Zm0,216.42a85.15,85.15,0,1,1,85.15-85.15A85.16,85.16,0,0,1,256.45,340.7Z"/><path class="cls-1" d="M423.56,119.09a30.65,30.65,0,1,1-30.65-30.65A30.65,30.65,0,0,1,423.56,119.09Z"/></svg>