<?xml version="1.0" encoding="UTF-8" standalone="no"?>
<!-- Generator: Adobe Illustrator 21.1.0, SVG Export Plug-In . SVG Version: 6.00 Build 0)  -->

<svg
   xmlns:dc="http://purl.org/dc/elements/1.1/"
   xmlns:cc="http://creativecommons.org/ns#"
   xmlns:rdf="http://www.w3.org/1999/02/22-rdf-syntax-ns#"
   xmlns:svg="http://www.w3.org/2000/svg"
   xmlns="http://www.w3.org/2000/svg"
   xmlns:sodipodi="http://sodipodi.sourceforge.net/DTD/sodipodi-0.dtd"
   xmlns:inkscape="http://www.inkscape.org/namespaces/inkscape"
   version="1.1"
   id="Layer_1"
   x="0px"
   y="0px"
   viewBox="0 0 1920 122"
   style="enable-background:new 0 0 1920 122;"
   xml:space="preserve"
   sodipodi:docname="paralax-top.svg"
   inkscape:version="0.92.4 (5da689c313, 2019-01-14)"><metadata
   id="metadata13"><rdf:RDF><cc:Work
       rdf:about=""><dc:format>image/svg+xml</dc:format><dc:type
         rdf:resource="http://purl.org/dc/dcmitype/StillImage" /></cc:Work></rdf:RDF></metadata><defs
   id="defs11" /><sodipodi:namedview
   pagecolor="#ffffff"
   bordercolor="#666666"
   borderopacity="1"
   objecttolerance="10"
   gridtolerance="10"
   guidetolerance="10"
   inkscape:pageopacity="0"
   inkscape:pageshadow="2"
   inkscape:window-width="1920"
   inkscape:window-height="1001"
   id="namedview9"
   showgrid="false"
   inkscape:zoom="8.4852813"
   inkscape:cx="82.398534"
   inkscape:cy="81.064493"
   inkscape:window-x="-9"
   inkscape:window-y="-9"
   inkscape:window-maximized="1"
   inkscape:current-layer="Layer_1" />
<style
   type="text/css"
   id="style2">
	.st0{fill:#FFFFFF;}
</style>
<g
   id="g6">
	<path
   class="st0"
   d="M0,23.3V42c2-0.7,6.5-0.9,9.6-0.3l0.3,1.5c8.6-1.1-2.8-1.6-0.6-3.1c6.2-0.2,15.9,3.3,26.1,3.6   c-10.2-0.1-18.7,1.6-26,3.1c18.5,3.4-3.6,7.7-7.9,11.5c15-1.3,20.8-3.9,33.1-6c14.2,3.7-0.5,10.8-5,11.5c13.5-1.8,27.7-6,34.9-7.4   c-10.3,5.6-8.7,7.6-17.9,12.1c10.8,3.9,13.1-0.3,18.4-2.4c-3,0.5-7.7,0.7-8.8-0.6c12.9,1,11-8.4,17.9-12.1   c8.8,2.7,25.1,4.5,26.2,9.1l0.1-4.8c11.2-0.9,5.7,3.2,7.4,5.2c4.4-3.8-0.6-9.7,18.2-10.6c-3.3,9.3,16.8,1.5,15.9,9.9   c8.8-0.2,13-4.8,22.2-3.5c10,5.2-14.4,11-19.8,9.3c-12.7-0.2,1.9-3.8-3.2-3.9l-12.3,2.1c6.7,2.1,19.9,4.6,18.2,8.4   c12.5-1.3-9.8-4.5,3.9-6.1l8.1,2.4c13.7-1.6-2.5-6.6,15.1-7.1c-12,3.6,19.2,0.8,17.8,6.9c1-7.8,31.7,0.2,35.7-6l-9.3-2.1l2,3.5   C210,65.9,201.6,67.7,191,66c8.4-2.6-2.5-6.6,7.2-8.8c18.3-4,4.6,4.3,7.2,4.4l14.6-3.6l-9.7-3.7c11.2-0.9,26.6-0.7,42,0.3   c22.7,5.4-3,4.2,13.2,9.1c7.4-1.4,5.6-3.4,16-2.5c-5.5-2.4-10,0.6-13.9,0.1c-4.8-5.1,18.7-1.5,17.9-6.3c4.2,2,3.2,3.9-0.1,5.8   c17.6-1.2,34.3,0.3,40.7,6.5l7.7-5.7c29.8,3.3-20.7,4.7,4.3,9.4c10.4,0.9,20.6,1.1,25.2-1.1l-9-0.6c7-3,6.6-5.3,17.7-7   c7.8,0.9,3.4,4.7,13,1.8c18.9,3.5,12,7.4,6.4,11.6c7.9-0.2,18.1,0.3,19.6-2.1c0,1.4-1.3,4.1-5.8,5.5c-15.9-6.8-6.5,6-12.9-0.8   l-3.6-0.3c-0.3,0.3-0.6,0.7-0.9,1.1c6.8,1.5,6.8,3.6,5,5.3l6.5-2.4l4.6,5.8c6.1,0.9,10.3-3.8,13.4-0.4c8.8,5.2-13.5,7.1,8.6,9.9   c23.7,2.6,22.6-6.6,38.7-4.7c-1.6-1.8-5.6-1.7-10.6-2.1c5.4-2.3-3.8-4.7,5.2-6.2c4.8,5.2,21.8,5.5,34.8,5.9   c-3.5,2.6,4.8,5.6,0.6,6.9c6.6-0.4,12.8-1,15.6-3.2c-26.3-4.8,25.7-3.2,5.5-9c20.6,1.1,24.4,5.8,37.1,8.9c-0.9,1.5-23.8,2.1-5.7,5   c21.2-4.3-3.5-7.4,13.1-13l-13.1-2.3c-1.4-6.5,22.9-0.7,26.4-1.9c8.1,1.9-11.5,1.3-3.6,6c12.1,1.9,18.4-1.9,26.1,0.9   c-7.8,4-2.9,2.5-11.7,6c28.6,1.1-1.7,4.9,20.1,8.5c6.9-0.5,2.7-4.5,13.8-3c-6.3-4.9-5.4-6.4-23.4-7.3c6.6-6.4,23.6,2.6,36.4-1   c-10.1-0.9-3.1-1.5-14.1-0.9c-1.3-5.7-5.2-6.7,4.9-11.6c-11.8,1-17.1,6.9-33.8,4.6c-4.4-5.9,20.8-3.6,21.3-11.1   c8.4-3.5,28.7,0.6,37.8,3.6c16.5-3.9,36.5-3.2,49.2-9.5c11.7,2.7,41.3-2.5,63.4,0.3c3.2,3.3,25.5,3.2,14.7,6.1   c4.6-0.7,18.6-1,14.5-3.8c-1.9,1-4,0-8,0.1l3.8-4c10.6,2.1,22.8-2.7,33,0.2c3.3,3.4-19.4,1.4-12.6,5.5c10.1-5.8,50.5-6.8,63.2-3.7   c8.6,1.1,9.4,6.4,12.9,7.1l14.5,0.2c1.6,1.8,1.8,3.7,4.4,5.9c7,1.4,12-0.1,16.4-0.8c18.8,4.1,8.5,7.8-1.3,11l-10.6-2.1   c-7.9,2.1-18.9,0.6-12.6,5.5c5.4-0.3,5.3-2.3,7.2-3.3l6.2,3c6.4-1.7,23.8-2.1,22.2-5.8c12.7,3.1,27.5,0.5,38.7,4   c-7.7-2.7,2.3-3.7,0.1-6.7l-13.5-1.6c10.9-0.6,26.8-2.7,37,0.2c-1.4,2.2-1.8,3,3.3,5.4c-7.2-3.4,19.2-3.3,3.5-8   c-6.3,1-12.7,1.3-18.9,0.6c-4.8-5.2,7.2-5.2,14-7.7c8.4-0.8,24.9-1.7,36.2-2.9c7,1.4,8.9,7.1,21.2,4.3c-15.3-5.3,15-7.3,19.2-12   c11.7,2.6,19.2-3.3,28.5,1c-4.9,1.5-22.9,0.7-27.7,4.2c-0.8,3.5,3.6,9.4-14.3,10.5c21.4,2.5,12.7-2.7,22.7-3.7l-7.3,0.2   c3.4-1.3-2.8-4.2,3.8-4c25.1,2.3,29.4,6.2,46.2,11.3c-3.7-2.7,4.2-4.7,8.2-4.8c16.3,3.9-0.5,7.4,9.3,13.1c5.8-3,16.9-1.6,13.3-4.3   c6.5,0.3,3,1.5,7.7,2.7c4.3-2.7,9.2-4.2,18.2-3.9c-0.9,1.5-2.3,3.7-10.8,2.6c9.6,1.7,12.9,7.1,8.6,9.9l-15.6-2.6   c-7.3,3.3,14.6,2.1,13.9,5.6c-6.9,0.5-12.1-1.9-16.6-1.2c4.2,4,18,0.8,26,0.8c12.6,1.1,7.8,4.6,7.9,6.6c21.6-5.1-24.5-7.7-4.3-12.6   c7.8-4,26.8-2.7,40.3-3c-11.3-5.4,1.6-6.9,15.4-8.1c-18.1-0.8-4.4-5.9-25.7-3.5l-0.2-3.9c9,0.4,19.6,2.6,28.7,3.1   c-1.9,1,0.1,2-2.9,2.5l27-0.7l-2.8,2.5c16.6,1.1,36.8,4.9,46.7,3.9c-8,0.1-14.7-4.1-6.3-5c7-2,14.2-2.8,21.3-2.3   c3.8,4.7,32.3,5.7,14.1,9.6c23.4-1.5,14.8-2.6,37.2-4.5l-14.9,0.6c-1.8-3.7,10.9-9.3-3.3-12.1c16.9-1.6,6.4-8.4,29-8.4   c9,2.6-3,7.2-15.6,7.6c6.4,0.6,12,2.8,18.7,0.6c4.7,3.2-12.2,4.8-11.6,6c11.6,0.7-0.1-2,10.8-2.6c19.2-3.3,11.9,6.6,30.3,4.7   c-4,0-11.1-1.4-6.2-3c24.6,1.1,13.8-3,31.7-4.2c9.9,5.6,5.3,11.2,21.3,13l-9-0.4c6.4,2.9,13,4.4,19.7,4.6   c33.8-3.2,61.8-10.1,96.5-12.8l-12.4,0.9c-4.1-2,10.4-1.8,10.3-3.8l7.6,2.7c2.3-3.7-17.2-4.3-12.5-7.8c1.6,0.6,3.3,0.7,5,0.5   l-7.1-1.4c16.1,1.9,29.2-4.4,41.1,2.2c-30.6-0.5-6.7,10.2-33.6,11.6c12.2-0.2,0.2,4.4,1.8,6c8.6,1.1,4.3-2.7,14-1.1   c-0.3,2.7-21.2,4.3-12.1,6.8c1.3-4.3,9.8-3,14-5.8c7,1.4-0.3,2.7,2.8,4.2c4,0,6.4-1.8,10-1.1l-2.8,2.5c19.7,4.6,6.3-3.8,28.8-1.7   c0.7-3.5-6.2-3-15.6-2.6c-4.4-7.9,29.6-7.1,28.1-15.6c21.4-0.4-5.8,3,12.4,5.9c9.9,5.6-13.6,5.1-18.5,8.6l18.8,4.1   c-6.6,6.4-18.3,3.9-21.8,9.8c14.1,0.9,12.4-0.9,26.8-2.7c-22.9-6,10.3-3.8-2.8-10.8c10.6,2.1,7.2,3.4,22.8,4c-9.4,1-1.5,5-12,5.1   c19,0.3,14.3-1.3,34.7-1c6.7-4.5-20.9-7,4.4-9.4c5.5,0.2,4.3,2,1.1,1.7c17.9,2.6-3.5-6,7.9-8c7.9-0.3,10.6,1.7,7.4,2.7   c11.9-2.1,5.5-5.6,13.4-6.3l-3.6-0.7c3.5-1.3-5.6-8.3,11.4-8c12.4,0.5,8.4,3,8.6,4.7c7.9-1,15.9-0.2,23.6,2.4   c-0.7-0.9,0.2-1.9,3.1-1.8c16.4-0.8,9.2,4.4,15.3,5.3c23.2,3.3-2.5-8.9,23.4-8.1l-30.1-2.7c1.4-2.2,2.1-5.7-4.4-5.9   c-0.7,3.5-11.6,6-21.6,5.1c-2.7-4.2,27.3-3.4,10.5-8.5c6.1,0.9,14.5,0.2,22,0.9c-7.8,4,24.1,1.8,10.9,6.1c33,0.2,37.7,3.4,68,1.4   c-2.8,2.5-22.4,8.6-38.1,6l-1.2-2.5c-19.8,2.1,15.3,3.3,11.5,7.3c21.6-4.9,46.8,2.9,72.9,4v-5.9v-4.2v-3v-1.6V23.3V0H0V23.3z"
   id="path4" />
</g>
</svg>