<?xml version="1.0" encoding="utf-8"?>
<!-- Generator: Adobe Illustrator 21.1.0, SVG Export Plug-In . SVG Version: 6.00 Build 0)  -->
<svg version="1.1" id="Layer_1" xmlns="http://www.w3.org/2000/svg" xmlns:xlink="http://www.w3.org/1999/xlink" x="0px" y="0px"
	 viewBox="0 0 1920 122" style="enable-background:new 0 0 1920 122;" xml:space="preserve">
<style type="text/css">
	.st0{fill:#FFFFFF;}
</style>
<g>
	<path class="st0" d="M1920,98.7V80c-2,0.7-6.5,0.9-9.6,0.3l-0.3-1.5c-8.6,1.1,2.8,1.6,0.6,3.1c-6.2,0.2-15.9-3.3-26.1-3.6
		c10.2,0.1,18.7-1.6,26-3.1c-18.5-3.4,3.6-7.7,7.9-11.5c-15,1.3-20.8,3.9-33.1,6c-14.2-3.7,0.5-10.8,5-11.5
		c-13.5,1.8-27.7,6-34.9,7.4c10.3-5.6,8.7-7.6,17.9-12.1c-10.8-3.9-13.1,0.3-18.4,2.4c3-0.5,7.7-0.7,8.8,0.6
		c-12.9-1-11,8.4-17.9,12.1c-8.8-2.7-25.1-4.5-26.2-9.1l-0.1,4.8c-11.2,0.9-5.7-3.2-7.4-5.2c-4.4,3.8,0.6,9.7-18.2,10.6
		c3.3-9.3-16.8-1.5-15.9-9.9c-8.8,0.2-13,4.8-22.2,3.5c-10-5.2,14.4-11,19.8-9.3c12.7,0.2-1.9,3.8,3.2,3.9l12.3-2.1
		c-6.7-2.1-19.9-4.6-18.2-8.4c-12.5,1.3,9.8,4.5-3.9,6.1l-8.1-2.4c-13.7,1.6,2.5,6.6-15.1,7.1c12-3.6-19.2-0.8-17.8-6.9
		c-1,7.8-31.7-0.2-35.7,6l9.3,2.1l-2-3.5c10.2,0.2,18.7-1.5,29.2,0.2c-8.4,2.6,2.5,6.6-7.2,8.8c-18.3,4-4.6-4.3-7.2-4.4l-14.6,3.6
		l9.7,3.7c-11.2,0.9-26.6,0.7-42-0.3c-22.7-5.4,3-4.2-13.2-9.1c-7.4,1.4-5.6,3.4-16,2.5c5.5,2.4,10-0.6,13.9-0.1
		c4.8,5.1-18.7,1.5-17.9,6.3c-4.2-2-3.2-3.9,0.1-5.8c-17.6,1.2-34.3-0.3-40.7-6.5l-7.7,5.7c-29.8-3.3,20.7-4.7-4.3-9.4
		c-10.4-0.9-20.6-1.1-25.2,1.1l9,0.6c-7,3-6.6,5.3-17.7,7c-7.8-0.9-3.4-4.7-13-1.8c-18.9-3.5-12-7.4-6.4-11.6
		c-7.9,0.2-18.1-0.3-19.6,2.1c0-1.4,1.3-4.1,5.8-5.5c15.9,6.8,6.5-6,12.9,0.8l3.6,0.3c0.3-0.3,0.6-0.7,0.9-1.1
		c-6.8-1.5-6.8-3.6-5-5.3l-6.5,2.4l-4.6-5.8c-6.1-0.9-10.3,3.8-13.4,0.4c-8.8-5.2,13.5-7.1-8.6-9.9c-23.7-2.6-22.6,6.6-38.7,4.7
		c1.6,1.8,5.6,1.7,10.6,2.1c-5.4,2.3,3.8,4.7-5.2,6.2c-4.8-5.2-21.8-5.5-34.8-5.9c3.5-2.6-4.8-5.6-0.6-6.9c-6.6,0.4-12.8,1-15.6,3.2
		c26.3,4.8-25.7,3.2-5.5,9c-20.6-1.1-24.4-5.8-37.1-8.9c0.9-1.5,23.8-2.1,5.7-5c-21.2,4.3,3.5,7.4-13.1,13l13.1,2.3
		c1.4,6.5-22.9,0.7-26.4,1.9c-8.1-1.9,11.5-1.3,3.6-6c-12.1-1.9-18.4,1.9-26.1-0.9c7.8-4,2.9-2.5,11.7-6c-28.6-1.1,1.7-4.9-20.1-8.5
		c-6.9,0.5-2.7,4.5-13.8,3c6.3,4.9,5.4,6.4,23.4,7.3c-6.6,6.4-23.6-2.6-36.4,1c10.1,0.9,3.1,1.5,14.1,0.9c1.3,5.7,5.2,6.7-4.9,11.6
		c11.8-1,17.1-6.9,33.8-4.6c4.4,5.9-20.8,3.6-21.3,11.1c-8.4,3.5-28.7-0.6-37.8-3.6c-16.5,3.9-36.5,3.2-49.2,9.5
		c-11.7-2.7-41.3,2.5-63.4-0.3c-3.2-3.3-25.5-3.2-14.7-6.1c-4.6,0.7-18.6,1-14.5,3.8c1.9-1,4,0,8-0.1l-3.8,4
		c-10.6-2.1-22.8,2.7-33-0.2c-3.3-3.4,19.4-1.4,12.6-5.5c-10.1,5.8-50.5,6.8-63.2,3.7c-8.6-1.1-9.4-6.4-12.9-7.1l-14.5-0.2
		c-1.6-1.8-1.8-3.7-4.4-5.9c-7-1.4-12,0.1-16.4,0.8c-18.8-4.1-8.5-7.8,1.3-11l10.6,2.1c7.9-2.1,18.9-0.6,12.6-5.5
		c-5.4,0.3-5.3,2.3-7.2,3.3l-6.2-3c-6.4,1.7-23.8,2.1-22.2,5.8c-12.7-3.1-27.5-0.5-38.7-4c7.7,2.7-2.3,3.7-0.1,6.7l13.5,1.6
		c-10.9,0.6-26.8,2.7-37-0.2c1.4-2.2,1.8-3-3.3-5.4c7.2,3.4-19.2,3.3-3.5,8c6.3-1,12.7-1.3,18.9-0.6c4.8,5.2-7.2,5.2-14,7.7
		c-8.4,0.8-24.9,1.7-36.2,2.9c-7-1.4-8.9-7.1-21.2-4.3c15.3,5.3-15,7.3-19.2,12c-11.7-2.6-19.2,3.3-28.5-1
		c4.9-1.5,22.9-0.7,27.7-4.2c0.8-3.5-3.6-9.4,14.3-10.5c-21.4-2.5-12.7,2.7-22.7,3.7l7.3-0.2c-3.4,1.3,2.8,4.2-3.8,4
		c-25.1-2.3-29.4-6.2-46.2-11.3c3.7,2.7-4.2,4.7-8.2,4.8c-16.3-3.9,0.5-7.4-9.3-13.1c-5.8,3-16.9,1.6-13.3,4.3
		c-6.5-0.3-3-1.5-7.7-2.7c-4.3,2.7-9.2,4.2-18.2,3.9c0.9-1.5,2.3-3.7,10.8-2.6c-9.6-1.7-12.9-7.1-8.6-9.9l15.6,2.6
		c7.3-3.3-14.6-2.1-13.9-5.6c6.9-0.5,12.1,1.9,16.6,1.2c-4.2-4-18-0.8-26-0.8c-12.6-1.1-7.8-4.6-7.9-6.6
		c-21.6,5.1,24.5,7.7,4.3,12.6c-7.8,4-26.8,2.7-40.3,3c11.3,5.4-1.6,6.9-15.4,8.1c18.1,0.8,4.4,5.9,25.7,3.5l0.2,3.9
		c-9-0.4-19.6-2.6-28.7-3.1c1.9-1-0.1-2,2.9-2.5l-27,0.7l2.8-2.5c-16.6-1.1-36.8-4.9-46.7-3.9c8-0.1,14.7,4.1,6.3,5
		c-7,2-14.2,2.8-21.3,2.3c-3.8-4.7-32.3-5.7-14.1-9.6c-23.4,1.5-14.8,2.6-37.2,4.5l14.9-0.6c1.8,3.7-10.9,9.3,3.3,12.1
		c-16.9,1.6-6.4,8.4-29,8.4c-9-2.6,3-7.2,15.6-7.6c-6.4-0.6-12-2.8-18.7-0.6c-4.7-3.2,12.2-4.8,11.6-6c-11.6-0.7,0.1,2-10.8,2.6
		c-19.2,3.3-11.9-6.6-30.3-4.7c4,0,11.1,1.4,6.2,3c-24.6-1.1-13.8,3-31.7,4.2c-9.9-5.6-5.3-11.2-21.3-13l9,0.4
		c-6.4-2.9-13-4.4-19.7-4.6C406.7,33.4,378.7,40.3,344,43l12.4-0.9c4.1,2-10.4,1.8-10.3,3.8l-7.6-2.7c-2.3,3.7,17.2,4.3,12.5,7.8
		c-1.6-0.6-3.3-0.7-5-0.5l7.1,1.4c-16.1-1.9-29.2,4.4-41.1-2.2c30.6,0.5,6.7-10.2,33.6-11.6c-12.2,0.2-0.2-4.4-1.8-6
		c-8.6-1.1-4.3,2.7-14,1.1c0.3-2.7,21.2-4.3,12.1-6.8c-1.3,4.3-9.8,3-14,5.8c-7-1.4,0.3-2.7-2.8-4.2c-4,0-6.4,1.8-10,1.1l2.8-2.5
		c-19.7-4.6-6.3,3.8-28.8,1.7c-0.7,3.5,6.2,3,15.6,2.6c4.4,7.9-29.6,7.1-28.1,15.6c-21.4,0.4,5.8-3-12.4-5.9
		c-9.9-5.6,13.6-5.1,18.5-8.6l-18.8-4.1c6.6-6.4,18.3-3.9,21.8-9.8c-14.1-0.9-12.4,0.9-26.8,2.7c22.9,6-10.3,3.8,2.8,10.8
		c-10.6-2.1-7.2-3.4-22.8-4c9.4-1,1.5-5,12-5.1c-19-0.3-14.3,1.3-34.7,1c-6.7,4.5,20.9,7-4.4,9.4c-5.5-0.2-4.3-2-1.1-1.7
		c-17.9-2.6,3.5,6-7.9,8c-7.9,0.3-10.6-1.7-7.4-2.7c-11.9,2.1-5.5,5.6-13.4,6.3l3.6,0.7c-3.5,1.3,5.6,8.3-11.4,8
		c-12.4-0.5-8.4-3-8.6-4.7c-7.9,1-15.9,0.2-23.6-2.4c0.7,0.9-0.2,1.9-3.1,1.8c-16.4,0.8-9.2-4.4-15.3-5.3
		c-23.2-3.3,2.5,8.9-23.4,8.1l30.1,2.7c-1.4,2.2-2.1,5.7,4.4,5.9c0.7-3.5,11.6-6,21.6-5.1c2.7,4.2-27.3,3.4-10.5,8.5
		c-6.1-0.9-14.5-0.2-22-0.9c7.8-4-24.1-1.8-10.9-6.1c-33-0.2-37.7-3.4-68-1.4c2.8-2.5,22.4-8.6,38.1-6l1.2,2.5
		c19.8-2.1-15.3-3.3-11.5-7.3C51.3,46.9,26.1,39,0,37.9v5.9v4.2v3v1.6v46.2V122h1920V98.7z"/>
</g>
</svg>
