<?xml version="1.0" encoding="utf-8"?>
<!-- Generator: Adobe Illustrator 21.1.0, SVG Export Plug-In . SVG Version: 6.00 Build 0)  -->
<svg version="1.1" id="Layer_1" xmlns="http://www.w3.org/2000/svg" xmlns:xlink="http://www.w3.org/1999/xlink" x="0px" y="0px"
	 viewBox="0 0 1920 123" style="enable-background:new 0 0 1920 123;" xml:space="preserve">
<style type="text/css">
	.st0{fill:#FFE8E0;}
</style>
<path class="st0" d="M1920,38.2c-18.5,2.7-39.4,3.9-36.7,10.3c13-0.6,23-3.7,36.7-5"/>
<path class="st0" d="M0,109.6c5.2,0,7.4-2.7,11.2-4.4c-3,0.6-7.7,1-8.8-0.2c12.9,0.5,10.7-8.8,17.4-12.8c8.9,2.3,25.3,3.5,26.5,8
	l-0.1-4.8c11.2-1.4,5.8,3,7.5,4.9c4.2-4-1-9.7,17.8-11.3c-2.9,9.4,16.8,0.8,16.3,9.3c8.8-0.6,12.8-5.3,22-4.4
	c10.2,4.8-13.9,11.6-19.4,10.1c-12.7,0.3,1.7-3.9-3.4-3.8L74.9,103c6.8,1.8,20.1,3.8,18.5,7.7c12.4-1.8-10-4.1,3.6-6.3l8.2,2.1
	c13.6-2.2-2.8-6.5,14.8-7.7c-11.8,4.1,19.2,0,18.1,6.2c0.7-7.8,31.7-1.1,35.4-7.4l-9.4-1.7l2.1,3.4c-10.2,0.2-18.7,2.3-29.2,1
	c8.3-2.9-2.8-6.5,6.8-9.1c18.1-4.7,4.8,4.1,7.4,4.1l14.4-4.2l-9.8-3.3c11.2-1.4,26.5-1.8,42-1.4c22.9,4.5-2.8,4.3,13.6,8.6
	c7.3-1.7,5.5-3.6,15.9-3.1c-5.6-2.2-10,1-13.9,0.7c-5-4.9,18.6-2.3,17.6-7c4.3,1.8,3.5,3.8,0.1,5.8c17.5-1.9,34.3-1.1,40.9,4.9
	l7.5-6c29.9,2.1-20.5,5.5,4.7,9.2c10.4,0.5,20.6,0.3,25.1-2.1l-9-0.2c6.9-3.3,6.4-5.6,17.4-7.7c7.8,0.6,3.6,4.6,13.1,1.3
	c19,2.7,12.3,6.9,6.9,11.3c7.9-0.5,18.1-0.4,19.5-2.9c0.1,1.4-1.1,4.1-5.6,5.7c-16.2-6.2-6.3,6.3-12.9-0.3l-3.5-0.2
	c-0.3,0.3-0.6,0.7-0.9,1.1c6.9,1.2,6.9,3.3,5.2,5.1l6.4-2.7l4.8,5.6c6.1,0.7,10.1-4.2,13.4-0.9c9.1,4.8-13.2,7.6,9,9.5
	c23.8,1.6,22.3-7.5,38.5-6.3c-1.7-1.7-5.7-1.5-10.7-1.7c5.3-2.5-4-4.5,4.9-6.4c5,5,22,4.6,35,4.5c-3.4,2.7,5,5.4,0.9,6.9
	c6.6-0.7,12.7-1.5,15.5-3.8c-26.5-3.7,25.6-4.2,5.1-9.2c20.6,0.3,24.6,4.8,37.4,7.4c-0.8,1.5-23.7,3.1-5.5,5.2
	c21-5.2-3.8-7.3,12.6-13.5l-13.2-1.8c-1.7-6.4,22.9-1.6,26.3-3c8.1,1.6-11.4,1.8-3.4,6.1c12.2,1.4,18.3-2.6,26.1-0.2
	c-7.6,4.3-2.8,2.6-11.4,6.5c28.6-0.1-1.5,5,20.3,7.7c6.9-0.8,2.5-4.6,13.7-3.6c-6.5-4.6-5.7-6.2-23.7-6.3c6.3-6.7,23.7,1.6,36.3-2.5
	c-10.1-0.5-3.2-1.4-14.1-0.3c-1.5-5.6-5.5-6.5,4.4-11.8c-11.7,1.5-16.8,7.6-33.6,6c-4.6-5.7,20.6-4.4,20.8-11.9
	c8.4-3.8,28.7-0.6,38,2.1c16.3-4.6,36.3-4.7,48.8-11.5c11.8,2.2,41.2-4.2,63.4-2.3c3.3,3.2,25.6,2.2,14.9,5.5
	c4.6-0.9,18.5-1.7,14.3-4.4c-1.9,1.1-4,0.2-8,0.4l3.5-4.1c10.7,1.7,22.7-3.6,33-1.1c3.4,3.3-19.3,2.2-12.4,6
	c9.9-6.2,50.2-8.8,63-6.2c8.6,0.8,9.6,6,13.2,6.6l14.5-0.4c1.7,1.7,1.9,3.6,4.6,5.7c7.1,1.1,12-0.6,16.4-1.5
	c18.9,3.3,8.8,7.5-0.9,11l-10.7-1.7c-7.8,2.4-18.9,1.4-12.4,6c5.4-0.5,5.2-2.5,7.1-3.6l6.3,2.7c6.3-2,23.7-3.1,21.9-6.7
	c12.8,2.6,27.5-0.6,38.8,2.4c-7.8-2.4,2.1-3.8-0.2-6.7l-13.6-1.1c10.9-1,26.7-3.8,37-1.3c-1.3,2.3-1.7,3.1,3.5,5.3
	c-7.3-3.1,19.1-4.1,3.2-8.1c-6.3,1.3-12.6,1.8-18.9,1.4c-5-5,7-5.5,13.7-8.3c8.4-1.1,24.8-2.7,36.1-4.4c7.1,1.1,9.2,6.7,21.4,3.4
	c-15.5-4.7,14.7-7.9,18.7-12.8c11.8,2.1,19.1-4.1,28.5-0.1c-4.8,1.7-22.9,1.6-27.5,5.3c-0.7,3.5,4,9.2-13.9,11.1
	c21.5,1.6,12.6-3.2,22.5-4.6l-7.3,0.5c3.3-1.4-3-4.1,3.6-4.1c25.2,1.3,29.6,5,46.6,9.4c-3.8-2.5,4-4.9,8-5.1
	c16.4,3.2-0.2,7.4,9.8,12.7c5.7-3.2,16.8-2.3,13.1-4.8c6.5,0,3.1,1.4,7.8,2.4c4.2-2.9,9-4.6,18-4.6c-0.8,1.5-2.1,3.8-10.7,3
	c9.7,1.3,13.2,6.6,9,9.5l-15.7-2c-7.2,3.6,14.7,1.5,14.1,5c-6.9,0.8-12.2-1.4-16.6-0.5c4.4,3.8,18,0.1,26-0.2
	c12.6,0.6,8,4.3,8.2,6.3c21.4-6-24.8-6.7-4.8-12.4c7.6-4.3,26.7-3.8,40.1-4.6c-11.5-4.9,1.3-7,15.1-8.7c-18.1-0.1-4.6-5.7-25.8-2.5
	l-0.4-3.9c9,0,19.7,1.8,28.8,1.9c-1.9,1.1,0.2,2-2.8,2.6l26.9-1.8l-2.7,2.6c16.6,0.4,37,3.4,46.8,2c-8,0.4-14.9-3.5-6.5-4.7
	c6.9-2.3,14.1-3.4,21.2-3.2c4,4.5,32.6,4.4,14.5,9c23.3-2.4,14.7-3.2,37-6l-14.9,1.2c-1.9-3.6,10.5-9.7-3.8-12
	c16.8-2.3,6.1-8.7,28.6-9.6c9.1,2.2-2.7,7.3-15.3,8.2c6.4,0.3,12.1,2.3,18.7-0.2c4.8,3-12,5.3-11.3,6.5c11.6,0.2-0.2-2,10.7-3
	c19.1-4.1,12.2,6.1,30.4,3.5c-4,0.2-11.1-1-6.3-2.7c24.6,0.1,13.7-3.6,31.5-5.5c10.1,5.2,5.7,11,21.8,12.1h-9
	c6.5,2.6,13.2,3.9,19.9,3.8c33.6-4.6,61.3-12.6,95.9-16.7l-12.4,1.4c-4.2-1.8,10.3-2.2,10.1-4.2l7.7,2.4c2.1-3.8-17.4-3.6-12.8-7.3
	c1.6,0.5,3.3,0.6,5,0.3l-7.2-1.1c16.2,1.2,29-5.6,41.2,0.5c-30.6,0.7-6.3,10.5-33.1,12.9c12.2-0.7,0.4,4.4,2,5.9
	c8.6,0.8,4.2-2.9,13.9-1.7c-0.2,2.7-21,5.2-11.8,7.3c1-4.3,9.7-3.4,13.8-6.4c7.1,1.1-0.2,2.7,3,4.1c4-0.2,6.3-2.1,9.9-1.5l-2.7,2.6
	c19.9,3.8,6.1-4,28.7-2.9c0.6-3.5-6.3-2.7-15.7-2c-4.7-7.7,29.3-8.3,27.4-16.7c21.4-1.3-5.7,3.2,12.6,5.4
	c10.1,5.2-13.4,5.6-18.1,9.3l18.9,3.3c-6.3,6.7-18.1,4.6-21.4,10.7c14.1,0.3,12.4-1.4,26.7-3.8c-23.1-5.1,10.1-4.2-3.1-10.7
	c10.7,1.7,7.3,3.1,22.9,3.1c-9.4,1.4-1.3,5.1-11.8,5.6c19-0.5,14.2-1.9,34.6-2.4c6.5-4.8-21.2-6.2,4-9.6c5.5,0,4.4,1.8,1.2,1.7
	c18,1.9-3.7-5.9,7.6-8.3c7.9-0.6,10.7,1.3,7.5,2.4c11.8-2.6,5.3-5.8,13.1-6.8l-3.6-0.6c3.4-1.4-5.8-8.1,11.2-8.5
	c12.4,0,8.5,2.7,8.8,4.3c7.9-1.3,15.9-0.8,23.7,1.4c-0.7-0.9,0.1-1.9,3-1.9c16.4-1.5,9.4,4,15.5,4.7c23.3,2.4-2.9-8.8,23.1-9
	l-30.2-1.5c1.3-2.3,1.9-5.8-4.6-5.7c-0.6,3.5-11.3,6.5-21.4,6c-2.4-3.4,18.3-4.3,15-7.1l16.4-0.2c3.2,1.7,22.5,0,11.9,4
	c33-1.1,37.8,1.9,68-1.3c-2.7,2.6-22,9.5-37.8,7.5l-1.3-2.4c-19.7,2.9,15.4,2.7,11.8,6.8c24.3-6.6,53.9,3.1,83.7,0.7
	c-5.2-2.2,0.7-3.5,1.9-5.8c-12,0.6-9.9,1.5-18.7-1.4c1.7-3.1,8.8-1.9,12.6-4.1c3.1-3.4-9,0-13.3-1.8c9-1.4,10.2-2,13.7-3.6l6.1-0.1
	c3.3,1.9,3.5,3.4,7.5,5.8c20.9,0.5,24.6-2.7,34.4-4v-4.9c0,0,0,0,0,0V0L0,0.9v29.7"/>
<path class="st0" d="M0,98.4c4.1-1.2,7.7-2.3,10.4-2.9c-6.1,3.6-7.9,5.8-10.3,8"/>
</svg>
